<svg width="97" height="97" viewBox="0 0 97 97" fill="none" xmlns="http://www.w3.org/2000/svg">
<path d="M35.3817 25.7473C32.8864 21.4252 27.2473 19.8784 23.6977 23.3866C20.2642 26.7801 17.5397 30.8648 15.726 35.4075C12.7864 42.7704 12.4101 50.9083 14.6579 58.5109C16.9057 66.1135 21.6466 72.7385 28.1174 77.3191C34.5882 81.8996 42.4123 84.1692 50.3298 83.7624C58.2473 83.3556 65.7976 80.2961 71.7648 75.0764C77.732 69.8568 81.769 62.7808 83.2258 54.9878C84.6825 47.1948 83.4742 39.1384 79.7954 32.1156C77.5256 27.7826 74.3969 23.9987 70.6336 20.975C66.7432 17.849 61.2923 19.9657 59.2531 24.5207V24.5207C57.2139 29.0758 59.5675 34.3614 62.4899 38.4069C62.9691 39.0703 63.4027 39.7701 63.7861 40.5019C65.5819 43.9301 66.1717 47.8629 65.4606 51.667C64.7495 55.4712 62.7788 58.9253 59.8659 61.4733C56.953 64.0212 53.2674 65.5148 49.4024 65.7133C45.5375 65.9119 41.7182 64.804 38.5594 62.568C35.4007 60.332 33.0864 57.098 31.9892 53.3868C30.8919 49.6756 31.0756 45.7031 32.5106 42.1089C32.8169 41.3416 33.1765 40.6011 33.5852 39.8921C36.0776 35.5683 37.8771 30.0693 35.3817 25.7473V25.7473Z" fill="url(#paint0_linear_26_41)"/>
<rect x="58.5181" y="41.5" width="18" height="4" rx="2" transform="rotate(90 58.5181 41.5)" fill="url(#paint1_linear_26_41)"/>
<rect x="50.5181" y="37.5" width="22" height="4" rx="2" transform="rotate(90 50.5181 37.5)" fill="url(#paint2_linear_26_41)"/>
<rect x="43.5181" y="33.5" width="26" height="4" rx="2" transform="rotate(90 43.5181 33.5)" fill="url(#paint3_linear_26_41)"/>
<defs>
<linearGradient id="paint0_linear_26_41" x1="-13.7363" y1="133.496" x2="-32.4093" y2="-26.8231" gradientUnits="userSpaceOnUse">
<stop stop-color="#2A3EF5"/>
<stop offset="1" stop-color="#AF198E"/>
</linearGradient>
<linearGradient id="paint1_linear_26_41" x1="56.6899" y1="38.039" x2="66.0722" y2="56.2712" gradientUnits="userSpaceOnUse">
<stop stop-color="#2A3EF5"/>
<stop offset="1" stop-color="#AF198E"/>
</linearGradient>
<linearGradient id="paint2_linear_26_41" x1="48.2836" y1="34.039" x2="56.5308" y2="53.627" gradientUnits="userSpaceOnUse">
<stop stop-color="#2A3EF5"/>
<stop offset="1" stop-color="#AF198E"/>
</linearGradient>
<linearGradient id="paint3_linear_26_41" x1="40.8773" y1="30.039" x2="48.1676" y2="50.5021" gradientUnits="userSpaceOnUse">
<stop stop-color="#2A3EF5"/>
<stop offset="1" stop-color="#AF198E"/>
</linearGradient>
</defs>
</svg>
